<?xml version="1.0" encoding="utf-8"?>
<!-- Generator: Adobe Illustrator 16.0.0, SVG Export Plug-In . SVG Version: 6.00 Build 0)  -->
<!DOCTYPE svg PUBLIC "-//W3C//DTD SVG 1.1//EN" "http://www.w3.org/Graphics/SVG/1.1/DTD/svg11.dtd">
<svg version="1.1" xmlns="http://www.w3.org/2000/svg" xmlns:xlink="http://www.w3.org/1999/xlink" x="0px" y="0px" width="400px"
   height="320.208px" viewBox="0 0 400 320.208" enable-background="new 0 0 400 320.208" xml:space="preserve">
<g id="top">
  <rect fill="#FFA726" width="400.006" height="64.042"/>
</g>
<g id="background">
  <path fill="#AED581" d="M399.982,64.085h-6.239c-0.25-0.027-0.504-0.043-0.761-0.043H7.024c-0.257,0-0.511,0.016-0.761,0.043H0.024
    v6.954l0,0c0,0.001,0,0.002,0,0.003v242.166c0,3.866,3.134,7,7,7h385.958c3.866,0,7-3.134,7-7V71.042c0-0.001,0-0.002,0-0.003l0,0
    V64.085z"/>
</g>
<g id="days">
  <g>
    <g>
      <path fill="#9CCC65" d="M47.004,145.106c0,3.866,3.134,7,7,7h52c3.866,0,7-3.134,7-7v-34c0-3.866-3.134-7-7-7h-52c-3.866,0-7,3.134-7,7V145.106z"/>
    </g>
    <g>
      <path fill="#9CCC65" d="M127.004,145.106c0,3.866,3.134,7,7,7h52c3.866,0,7-3.134,7-7v-34c0-3.866-3.134-7-7-7h-52c-3.866,0-7,3.134-7,7V145.106z"/>
    </g>
    <g>
      <path fill="#9CCC65" d="M207.004,145.106c0,3.866,3.134,7,7,7h52c3.866,0,7-3.134,7-7v-34c0-3.866-3.134-7-7-7h-52c-3.866,0-7,3.134-7,7V145.106z"/>
    </g>
    <g>
      <path fill="#9CCC65" d="M287.004,145.106c0,3.866,3.134,7,7,7h52c3.866,0,7-3.134,7-7v-34c0-3.866-3.134-7-7-7h-52c-3.866,0-7,3.134-7,7V145.106z"/>
    </g>
    <g>
      <path fill="#9CCC65" d="M47.004,209.274c0,3.866,3.134,7,7,7h52c3.866,0,7-3.134,7-7v-34c0-3.866-3.134-7-7-7h-52c-3.866,0-7,3.134-7,7V209.274z"/>
    </g>
    <g>
      <path fill="#9CCC65" d="M127.004,209.274c0,3.866,3.134,7,7,7h52c3.866,0,7-3.134,7-7v-34c0-3.866-3.134-7-7-7h-52c-3.866,0-7,3.134-7,7V209.274z"/>
    </g>
    <g>
      <path fill="#9CCC65" d="M207.004,209.274c0,3.866,3.134,7,7,7h52c3.866,0,7-3.134,7-7v-34c0-3.866-3.134-7-7-7h-52c-3.866,0-7,3.134-7,7V209.274z"/>
    </g>
    <g>
      <path fill="#9CCC65" d="M287.004,209.274c0,3.866,3.134,7,7,7h52c3.866,0,7-3.134,7-7v-34c0-3.866-3.134-7-7-7h-52c-3.866,0-7,3.134-7,7V209.274z"/>
    </g>
    <g>
      <path fill="#9CCC65" d="M47.004,273.315c0,3.866,3.134,7,7,7h52c3.866,0,7-3.134,7-7v-34c0-3.866-3.134-7-7-7h-52c-3.866,0-7,3.134-7,7V273.315z"/>
    </g>
    <g>
      <path fill="#9CCC65" d="M127.004,273.315c0,3.866,3.134,7,7,7h52c3.866,0,7-3.134,7-7v-34c0-3.866-3.134-7-7-7h-52c-3.866,0-7,3.134-7,7V273.315z"/>
    </g>
    <g>
      <path fill="#9CCC65" d="M207.004,273.315c0,3.866,3.134,7,7,7h52c3.866,0,7-3.134,7-7v-34c0-3.866-3.134-7-7-7h-52c-3.866,0-7,3.134-7,7V273.315z"/>
    </g>
  </g>
</g>
</svg>
